<svg width="100" height="40" viewBox="0 0 100 40" fill="none" xmlns="http://www.w3.org/2000/svg">
<g clip-path="url(#clip0_2193_584)">
<path d="M57.7896 12.2078L55.7042 9.226C55.6167 9.2357 55.4855 9.24055 55.3105 9.24055H53.0063V12.2078H51.1105V2.026H55.3105C56.1952 2.026 56.9633 2.17146 57.6146 2.46237C58.2758 2.75327 58.7813 3.17024 59.1313 3.71327C59.4813 4.2563 59.6563 4.90115 59.6563 5.64782C59.6563 6.41388 59.4667 7.07327 59.0876 7.626C58.7181 8.17873 58.1834 8.59085 57.4834 8.86237L59.8313 12.2078H57.7896ZM57.7459 5.64782C57.7459 4.99812 57.532 4.49873 57.1042 4.14964C56.6765 3.80055 56.0494 3.626 55.223 3.626H53.0063V7.68418H55.223C56.0494 7.68418 56.6765 7.50964 57.1042 7.16055C57.532 6.80176 57.7459 6.29752 57.7459 5.64782Z" fill="#1E1B1B"/>
<path d="M64.6649 12.3096C63.8774 12.3096 63.1677 12.1399 62.5357 11.8005C61.9038 11.4612 61.4079 10.9909 61.0482 10.3896C60.6982 9.77873 60.5232 9.09024 60.5232 8.32418C60.5232 7.55812 60.6982 6.87449 61.0482 6.27327C61.4079 5.67206 61.9038 5.20176 62.5357 4.86237C63.1677 4.52297 63.8774 4.35327 64.6649 4.35327C65.4621 4.35327 66.1767 4.52297 66.8086 4.86237C67.4406 5.20176 67.9316 5.67206 68.2816 6.27327C68.6413 6.87449 68.8211 7.55812 68.8211 8.32418C68.8211 9.09024 68.6413 9.77873 68.2816 10.3896C67.9316 10.9909 67.4406 11.4612 66.8086 11.8005C66.1767 12.1399 65.4621 12.3096 64.6649 12.3096ZM64.6649 10.7533C65.3357 10.7533 65.8899 10.5302 66.3274 10.0842C66.7649 9.63812 66.9836 9.05146 66.9836 8.32418C66.9836 7.59691 66.7649 7.01024 66.3274 6.56418C65.8899 6.11812 65.3357 5.89509 64.6649 5.89509C63.9941 5.89509 63.4399 6.11812 63.0024 6.56418C62.5746 7.01024 62.3607 7.59691 62.3607 8.32418C62.3607 9.05146 62.5746 9.63812 63.0024 10.0842C63.4399 10.5302 63.9941 10.7533 64.6649 10.7533Z" fill="#1E1B1B"/>
<path d="M73.6268 12.3096C72.8393 12.3096 72.1296 12.1399 71.4976 11.8005C70.8657 11.4612 70.3699 10.9909 70.0101 10.3896C69.6601 9.77873 69.4851 9.09024 69.4851 8.32418C69.4851 7.55812 69.6601 6.87449 70.0101 6.27327C70.3699 5.67206 70.8657 5.20176 71.4976 4.86237C72.1296 4.52297 72.8393 4.35327 73.6268 4.35327C74.424 4.35327 75.1386 4.52297 75.7706 4.86237C76.4025 5.20176 76.8935 5.67206 77.2435 6.27327C77.6032 6.87449 77.7831 7.55812 77.7831 8.32418C77.7831 9.09024 77.6032 9.77873 77.2435 10.3896C76.8935 10.9909 76.4025 11.4612 75.7706 11.8005C75.1386 12.1399 74.424 12.3096 73.6268 12.3096ZM73.6268 10.7533C74.2976 10.7533 74.8518 10.5302 75.2893 10.0842C75.7268 9.63812 75.9456 9.05146 75.9456 8.32418C75.9456 7.59691 75.7268 7.01024 75.2893 6.56418C74.8518 6.11812 74.2976 5.89509 73.6268 5.89509C72.956 5.89509 72.4018 6.11812 71.9643 6.56418C71.5365 7.01024 71.3226 7.59691 71.3226 8.32418C71.3226 9.05146 71.5365 9.63812 71.9643 10.0842C72.4018 10.5302 72.956 10.7533 73.6268 10.7533Z" fill="#1E1B1B"/>
<path d="M81.495 12.3096C80.863 12.3096 80.2457 12.2272 79.6429 12.0624C79.0401 11.8975 78.5589 11.689 78.1991 11.4369L78.8991 10.0551C79.2491 10.2878 79.6672 10.4769 80.1533 10.6224C80.6491 10.7581 81.1352 10.826 81.6116 10.826C82.7005 10.826 83.245 10.5399 83.245 9.96782C83.245 9.6963 83.104 9.50721 82.8221 9.40055C82.5498 9.29388 82.1075 9.19206 81.495 9.09509C80.8533 8.99812 80.3283 8.88661 79.92 8.76055C79.5214 8.63449 79.1714 8.41631 78.87 8.106C78.5783 7.786 78.4325 7.34479 78.4325 6.78236C78.4325 6.04539 78.7387 5.45873 79.3512 5.02236C79.9734 4.5763 80.8096 4.35327 81.8596 4.35327C82.3943 4.35327 82.929 4.4163 83.4637 4.54237C83.9984 4.65873 84.4359 4.81873 84.7762 5.02236L84.0762 6.40418C83.4151 6.0163 82.6714 5.82237 81.845 5.82237C81.3102 5.82237 80.9019 5.90479 80.62 6.06964C80.3477 6.22479 80.2116 6.43327 80.2116 6.69509C80.2116 6.986 80.3575 7.19449 80.6491 7.32055C80.9505 7.43691 81.4123 7.54843 82.0346 7.65509C82.6568 7.75206 83.1672 7.86358 83.5658 7.98964C83.9644 8.1157 84.3047 8.32903 84.5866 8.62964C84.8783 8.93024 85.0241 9.35691 85.0241 9.90964C85.0241 10.6369 84.7082 11.2187 84.0762 11.6551C83.4443 12.0915 82.5839 12.3096 81.495 12.3096Z" fill="#1E1B1B"/>
<path d="M53.0063 17.8972V20.9954H57.9355V22.5954H53.0063V26.4935H51.1105V16.3117H58.5626V17.8972H53.0063Z" fill="#1E1B1B"/>
<path d="M59.7835 15.7008H61.6064V26.4935H59.7835V15.7008Z" fill="#1E1B1B"/>
<path d="M70.8823 22.6535C70.8823 22.7796 70.8726 22.959 70.8531 23.1917H64.7427C64.8497 23.7638 65.1267 24.2196 65.574 24.559C66.0309 24.8887 66.5948 25.0535 67.2656 25.0535C68.1212 25.0535 68.826 24.7723 69.3802 24.2099L70.3573 25.3299C70.0073 25.7469 69.5649 26.062 69.0302 26.2754C68.4955 26.4887 67.8927 26.5954 67.2219 26.5954C66.3663 26.5954 65.6128 26.4257 64.9615 26.0863C64.3101 25.7469 63.8045 25.2766 63.4448 24.6754C63.0948 24.0644 62.9198 23.376 62.9198 22.6099C62.9198 21.8535 63.0899 21.1747 63.4302 20.5735C63.7802 19.9626 64.2615 19.4875 64.874 19.1481C65.4865 18.8087 66.1767 18.639 66.9448 18.639C67.7031 18.639 68.3788 18.8087 68.9719 19.1481C69.5747 19.4778 70.0413 19.9481 70.3719 20.559C70.7122 21.1602 70.8823 21.8584 70.8823 22.6535ZM66.9448 20.0935C66.3615 20.0935 65.8656 20.2681 65.4573 20.6172C65.0587 20.9566 64.8156 21.4123 64.7281 21.9844H69.1469C69.0691 21.422 68.8309 20.9663 68.4323 20.6172C68.0337 20.2681 67.5378 20.0935 66.9448 20.0935Z" fill="#1E1B1B"/>
<path d="M79.5166 22.6535C79.5166 22.7796 79.5069 22.959 79.4875 23.1917H73.3771C73.484 23.7638 73.7611 24.2196 74.2083 24.559C74.6653 24.8887 75.2291 25.0535 75.9 25.0535C76.7555 25.0535 77.4604 24.7723 78.0146 24.2099L78.9916 25.3299C78.6416 25.7469 78.1993 26.062 77.6646 26.2754C77.1298 26.4887 76.5271 26.5954 75.8562 26.5954C75.0007 26.5954 74.2472 26.4257 73.5958 26.0863C72.9444 25.7469 72.4389 25.2766 72.0791 24.6754C71.7292 24.0644 71.5541 23.376 71.5541 22.6099C71.5541 21.8535 71.7243 21.1747 72.0646 20.5735C72.4146 19.9626 72.8958 19.4875 73.5083 19.1481C74.1208 18.8087 74.8111 18.639 75.5791 18.639C76.3375 18.639 77.0132 18.8087 77.6062 19.1481C78.209 19.4778 78.6757 19.9481 79.0062 20.559C79.3465 21.1602 79.5166 21.8584 79.5166 22.6535ZM75.5791 20.0935C74.9958 20.0935 74.5 20.2681 74.0916 20.6172C73.693 20.9566 73.45 21.4123 73.3625 21.9844H77.7812C77.7035 21.422 77.4653 20.9663 77.0667 20.6172C76.668 20.2681 76.1722 20.0935 75.5791 20.0935Z" fill="#1E1B1B"/>
<path d="M85.5114 26.0717C85.2975 26.2463 85.035 26.3772 84.7239 26.4644C84.4225 26.5517 84.1017 26.5954 83.7614 26.5954C82.9059 26.5954 82.2448 26.3723 81.7781 25.9263C81.3114 25.4802 81.0781 24.8305 81.0781 23.9772V20.239H79.7948V18.7844H81.0781V17.0099H82.901V18.7844H84.9864V20.239H82.901V23.9335C82.901 24.3117 82.9934 24.6026 83.1781 24.8063C83.3628 25.0002 83.6302 25.0972 83.9802 25.0972C84.3885 25.0972 84.7288 24.9905 85.001 24.7772L85.5114 26.0717Z" fill="#1E1B1B"/>
<path d="M86.0373 21.6935H90.0478V23.2063H86.0373V21.6935Z" fill="#1E1B1B"/>
<path d="M53.3417 39.3226C52.7098 39.3226 52.0924 39.2402 51.4896 39.0754C50.8869 38.9105 50.4056 38.702 50.0459 38.4499L50.7459 37.0681C51.0959 37.3008 51.514 37.4899 52.0001 37.6354C52.4959 37.7711 52.982 37.839 53.4584 37.839C54.5473 37.839 55.0917 37.5529 55.0917 36.9808C55.0917 36.7093 54.9508 36.5202 54.6688 36.4135C54.3966 36.3069 53.9542 36.2051 53.3417 36.1081C52.7001 36.0111 52.1751 35.8996 51.7667 35.7735C51.3681 35.6475 51.0181 35.4293 50.7167 35.119C50.4251 34.799 50.2792 34.3578 50.2792 33.7954C50.2792 33.0584 50.5855 32.4717 51.198 32.0354C51.8202 31.5893 52.6563 31.3663 53.7063 31.3663C54.241 31.3663 54.7758 31.4293 55.3105 31.5554C55.8452 31.6717 56.2827 31.8317 56.623 32.0354L55.923 33.4172C55.2619 33.0293 54.5181 32.8354 53.6917 32.8354C53.157 32.8354 52.7487 32.9178 52.4667 33.0826C52.1945 33.2378 52.0584 33.4463 52.0584 33.7081C52.0584 33.999 52.2042 34.2075 52.4959 34.3335C52.7973 34.4499 53.2591 34.5614 53.8813 34.6681C54.5035 34.765 55.014 34.8766 55.4126 35.0026C55.8112 35.1287 56.1515 35.342 56.4334 35.6426C56.7251 35.9432 56.8709 36.3699 56.8709 36.9226C56.8709 37.6499 56.5549 38.2317 55.923 38.6681C55.291 39.1044 54.4306 39.3226 53.3417 39.3226Z" fill="#1E1B1B"/>
<path d="M65.3241 35.3808C65.3241 35.5069 65.3144 35.6863 65.2949 35.919H59.1845C59.2915 36.4911 59.5685 36.9469 60.0158 37.2863C60.4727 37.616 61.0366 37.7808 61.7074 37.7808C62.563 37.7808 63.2679 37.4996 63.822 36.9372L64.7991 38.0572C64.4491 38.4741 64.0067 38.7893 63.472 39.0026C62.9373 39.216 62.3345 39.3226 61.6637 39.3226C60.8081 39.3226 60.0547 39.1529 59.4033 38.8135C58.7519 38.4741 58.2463 38.0038 57.8866 37.4026C57.5366 36.7917 57.3616 36.1032 57.3616 35.3372C57.3616 34.5808 57.5317 33.902 57.872 33.3008C58.222 32.6899 58.7033 32.2147 59.3158 31.8754C59.9283 31.536 60.6185 31.3663 61.3866 31.3663C62.1449 31.3663 62.8206 31.536 63.4137 31.8754C64.0165 32.205 64.4831 32.6754 64.8137 33.2863C65.154 33.8875 65.3241 34.5857 65.3241 35.3808ZM61.3866 32.8208C60.8033 32.8208 60.3074 32.9954 59.8991 33.3444C59.5005 33.6838 59.2574 34.1396 59.1699 34.7117H63.5887C63.5109 34.1493 63.2727 33.6935 62.8741 33.3444C62.4755 32.9954 61.9797 32.8208 61.3866 32.8208Z" fill="#1E1B1B"/>
<path d="M68.1126 32.5881C68.6376 31.7735 69.5612 31.3663 70.8835 31.3663V33.0972C70.7279 33.0681 70.5869 33.0535 70.4605 33.0535C69.7508 33.0535 69.1967 33.262 68.798 33.679C68.3994 34.0863 68.2001 34.6778 68.2001 35.4535V39.2208H66.3772V31.4535H68.1126V32.5881Z" fill="#1E1B1B"/>
<path d="M80.0897 31.4535L76.7501 39.2208H74.8689L71.5293 31.4535H73.4251L75.8459 37.2135L78.3397 31.4535H80.0897Z" fill="#1E1B1B"/>
<path d="M80.7915 31.4535H82.6144V39.2208H80.7915V31.4535ZM81.7103 30.1735C81.3797 30.1735 81.1026 30.0717 80.879 29.8681C80.6554 29.6547 80.5436 29.3929 80.5436 29.0826C80.5436 28.7723 80.6554 28.5154 80.879 28.3117C81.1026 28.0984 81.3797 27.9917 81.7103 27.9917C82.0408 27.9917 82.3179 28.0935 82.5415 28.2972C82.7651 28.4911 82.8769 28.7384 82.8769 29.039C82.8769 29.359 82.7651 29.6305 82.5415 29.8535C82.3276 30.0669 82.0505 30.1735 81.7103 30.1735Z" fill="#1E1B1B"/>
<path d="M88.1424 39.3226C87.3355 39.3226 86.6112 39.1529 85.9695 38.8135C85.3279 38.4741 84.8272 38.0038 84.4674 37.4026C84.1077 36.7917 83.9278 36.1032 83.9278 35.3372C83.9278 34.5711 84.1077 33.8875 84.4674 33.2863C84.8272 32.6851 85.323 32.2147 85.9549 31.8754C86.5966 31.536 87.3258 31.3663 88.1424 31.3663C88.9105 31.3663 89.5813 31.5214 90.1549 31.8317C90.7383 32.142 91.1758 32.5881 91.4674 33.1699L90.0674 33.9844C89.8438 33.6257 89.5619 33.359 89.2216 33.1844C88.891 33.0002 88.5265 32.9081 88.1278 32.9081C87.4473 32.9081 86.8834 33.1311 86.4362 33.5772C85.989 34.0135 85.7653 34.6002 85.7653 35.3372C85.7653 36.0741 85.9841 36.6657 86.4216 37.1117C86.8688 37.5481 87.4376 37.7663 88.1278 37.7663C88.5265 37.7663 88.891 37.679 89.2216 37.5044C89.5619 37.3202 89.8438 37.0487 90.0674 36.6899L91.4674 37.5044C91.166 38.0863 90.7237 38.5372 90.1403 38.8572C89.5667 39.1675 88.9008 39.3226 88.1424 39.3226Z" fill="#1E1B1B"/>
<path d="M99.8126 35.3808C99.8126 35.5069 99.8029 35.6863 99.7835 35.919H93.673C93.78 36.4911 94.0571 36.9469 94.5043 37.2863C94.9612 37.616 95.5251 37.7808 96.196 37.7808C97.0515 37.7808 97.7564 37.4996 98.3105 36.9372L99.2876 38.0572C98.9376 38.4741 98.4953 38.7893 97.9605 39.0026C97.4258 39.216 96.823 39.3226 96.1522 39.3226C95.2967 39.3226 94.5432 39.1529 93.8918 38.8135C93.2404 38.4741 92.7349 38.0038 92.3751 37.4026C92.0251 36.7917 91.8501 36.1032 91.8501 35.3372C91.8501 34.5808 92.0203 33.902 92.3605 33.3008C92.7105 32.6899 93.1918 32.2147 93.8043 31.8754C94.4168 31.536 95.1071 31.3663 95.8751 31.3663C96.6335 31.3663 97.3092 31.536 97.9022 31.8754C98.505 32.205 98.9717 32.6754 99.3022 33.2863C99.6425 33.8875 99.8126 34.5857 99.8126 35.3808ZM95.8751 32.8208C95.2918 32.8208 94.796 32.9954 94.3876 33.3444C93.989 33.6838 93.746 34.1396 93.6585 34.7117H98.0772C97.9994 34.1493 97.7612 33.6935 97.3626 33.3444C96.964 32.9954 96.4682 32.8208 95.8751 32.8208Z" fill="#1E1B1B"/>
<path fill-rule="evenodd" clip-rule="evenodd" d="M18.0856 18.6414H13.229L7.0745 10.1627C6.61808 10.1817 6.24724 10.1912 5.96198 10.1912C5.84787 10.1912 5.72426 10.1888 5.59114 10.1841C5.45326 10.1793 5.31301 10.1722 5.17037 10.1627V15.4335C5.17037 16.5763 5.29637 17.2852 5.54835 17.5603C5.88591 17.9539 6.39462 18.1506 7.0745 18.1506H7.78765V18.6414H0V18.1506H0.677497C1.4477 18.1506 1.99921 17.9017 2.33202 17.4038C2.51744 17.124 2.61015 16.4672 2.61015 15.4335V3.71831C2.61015 2.57548 2.48653 1.86655 2.23931 1.59151C1.88748 1.19793 1.36688 1.00113 0.677497 1.00113H0V0.510334H6.61808C8.54835 0.510334 9.97229 0.650223 10.8899 0.930003C11.8075 1.20978 12.5848 1.72666 13.2219 2.48064C13.8637 3.23462 14.1847 4.13324 14.1847 5.17648C14.1847 6.29085 13.8209 7.25823 13.0935 8.0786C12.3614 8.89897 11.2322 9.47749 9.70604 9.81418L13.4572 15.0209C14.3178 16.2159 15.0547 17.0102 15.668 17.4038C16.2861 17.7926 17.092 18.0416 18.0856 18.1506V18.6414ZM5.17037 9.31626C5.34153 9.31626 5.48892 9.31863 5.61253 9.32338C5.7409 9.32812 5.84549 9.33049 5.92632 9.33049C7.65691 9.33049 8.96436 8.95587 9.84867 8.20663C10.7282 7.45739 11.168 6.50425 11.168 5.34719C11.168 4.21385 10.8114 3.2939 10.0983 2.58734C9.38988 1.87604 8.44851 1.52038 7.27418 1.52038C6.75596 1.52038 6.05469 1.60574 5.17037 1.77645V9.31626Z" fill="#1E1B1B"/>
<path fill-rule="evenodd" clip-rule="evenodd" d="M27.8844 0.0977783C30.2473 0.0977783 32.2917 0.991649 34.0175 2.77939C35.7481 4.56713 36.6134 6.79825 36.6134 9.47275C36.6134 12.2279 35.7433 14.5135 34.0032 16.3297C32.2584 18.1506 30.1474 19.0611 27.6704 19.0611C25.1696 19.0611 23.0682 18.172 21.3661 16.3937C19.6593 14.6202 18.8059 12.3251 18.8059 9.50832C18.8059 6.62991 19.7901 4.28024 21.7584 2.4593C23.4652 0.884953 25.5072 0.0977783 27.8844 0.0977783ZM27.6348 1.07226C26.004 1.07226 24.6989 1.6745 23.7195 2.87897C22.4929 4.37271 21.8796 6.56589 21.8796 9.45852C21.8796 12.4175 22.5143 14.6937 23.7837 16.287C24.7584 17.501 26.0444 18.108 27.6419 18.108C29.3535 18.108 30.7655 17.4441 31.878 16.1163C32.9906 14.7886 33.5468 12.6926 33.5468 9.8284C33.5468 6.72712 32.9335 4.41539 31.7069 2.8932C30.7227 1.67924 29.3654 1.07226 27.6348 1.07226Z" fill="#1E1B1B"/>
<path fill-rule="evenodd" clip-rule="evenodd" d="M10.6545 20.882C13.0127 20.882 15.0571 21.7759 16.7877 23.5637C18.5183 25.3514 19.3836 27.5825 19.3836 30.257C19.3836 33.0121 18.5111 35.2978 16.7663 37.114C15.0262 38.9349 12.9176 39.8454 10.4406 39.8454C7.93504 39.8454 5.83123 38.9586 4.12917 37.1851C2.4271 35.4116 1.57607 33.1165 1.57607 30.2997C1.57607 27.4166 2.56023 25.0669 4.52854 23.2507C6.23535 21.6716 8.27735 20.882 10.6545 20.882ZM10.3978 21.8565C8.77181 21.8565 7.46673 22.4588 6.48258 23.6632C5.26071 25.1617 4.64977 27.3549 4.64977 30.2428C4.64977 33.2018 5.28448 35.4804 6.5539 37.0784C7.52854 38.2924 8.8146 38.8993 10.4121 38.8993C12.1189 38.8993 13.5286 38.2331 14.6411 36.9006C15.7536 35.5728 16.3099 33.4792 16.3099 30.6198C16.3099 27.5185 15.6989 25.2044 14.477 23.6775C13.4929 22.4635 12.1331 21.8565 10.3978 21.8565Z" fill="#1E1B1B"/>
<path d="M33.8249 20.882V27.1557H33.3329C33.1712 25.9513 32.8836 24.9934 32.47 24.2821C32.0516 23.566 31.4597 22.9994 30.6942 22.5821C29.924 22.1648 29.1276 21.9561 28.3051 21.9561C27.3733 21.9514 26.6054 22.2335 26.0016 22.8026C25.3931 23.3669 25.0888 24.0118 25.0888 24.7373C25.0888 25.2874 25.2814 25.79 25.6665 26.2453C26.218 26.9139 27.5349 27.8054 29.6173 28.9198C31.3146 29.8302 32.4747 30.5273 33.0975 31.011C33.7204 31.4994 34.1982 32.0732 34.531 32.7324C34.8685 33.3915 35.0373 34.0815 35.0373 34.8022C35.0373 36.1774 34.5024 37.3606 33.4327 38.3516C32.363 39.3475 30.989 39.8454 29.3107 39.8454C28.7829 39.8454 28.2861 39.8051 27.8202 39.7245C27.5444 39.6818 26.9715 39.5206 26.1015 39.2408C25.2267 38.9563 24.6728 38.814 24.4398 38.814C24.2164 38.814 24.0405 38.8828 23.9121 39.0203C23.7837 39.153 23.6886 39.4281 23.6268 39.8454H23.1276V33.6286H23.6268C23.8598 34.9279 24.1712 35.9024 24.5611 36.552C24.9557 37.197 25.5571 37.7328 26.3653 38.1596C27.1736 38.5911 28.0603 38.8045 29.0254 38.7998C30.1427 38.7998 31.027 38.5058 31.6784 37.9178C32.3249 37.3297 32.6482 36.635 32.6482 35.8336C32.6482 35.3879 32.5246 34.9374 32.2774 34.4822C32.0349 34.0269 31.6546 33.6025 31.1364 33.2089C30.7845 32.9434 29.8313 32.3767 28.2766 31.5089C26.7219 30.6411 25.6165 29.9464 24.9604 29.4248C24.3043 28.9079 23.8051 28.3389 23.4628 27.7177C23.1252 27.0917 22.9565 26.4041 22.9565 25.6549C22.9565 24.3556 23.4557 23.2341 24.4541 22.2904C25.4573 21.3515 26.7314 20.882 28.2766 20.882C29.2417 20.882 30.2663 21.1191 31.3503 21.5933C31.8495 21.8162 32.2013 21.9277 32.4058 21.9277C32.6387 21.9277 32.8289 21.8589 32.9763 21.7214C33.1237 21.5791 33.2425 21.2993 33.3329 20.882H33.8249Z" fill="#1E1B1B"/>
</g>
<defs>
<clipPath id="clip0_2193_584">
<rect width="100" height="40" fill="white"/>
</clipPath>
</defs>
</svg>
